<svg width="1920" height="390" viewBox="0 0 1920 390" fill="none" xmlns="http://www.w3.org/2000/svg">
<path d="M86.366 213.932C108.227 201.88 120.967 178.591 120.967 149.645C120.967 99.653 83.9964 64.7451 31.0506 64.7451H-114.64V351.907H-49.2345V242.903H8.39955C41.7264 242.903 47.6121 253.528 47.6121 275.823V351.907H113.425V268.689C113.425 239.183 105.909 223.308 86.366 213.932ZM-49.2345 121.77H21.4194C45.4718 121.77 57.6764 132.828 57.6764 154.665C57.6764 176.221 44.7839 187.177 19.3047 187.177H-49.2345V121.77Z" stroke="white" stroke-opacity="0.7" stroke-width="2" stroke-miterlimit="10"/>
<path d="M225.941 293.659V230.774H362.204V172.908H225.941V122.177H373.925V64.7705H160.562V351.932H380.651V293.659H225.941Z" stroke="white" stroke-opacity="0.7" stroke-width="2" stroke-miterlimit="10"/>
<path d="M589.529 224.659L490.67 64.7705H419.863V351.856H486.109V183.559L593.275 351.856H656.183V64.7705H589.529V224.659Z" stroke="white" stroke-opacity="0.7" stroke-width="2" stroke-miterlimit="10"/>
<path d="M1109 351.933C1037.68 351.933 996.102 318.936 994.955 261.427L994.904 259.287H1052.46L1052.51 261.325C1053.25 287.111 1075.06 303.138 1109.38 303.138C1140.72 303.138 1158.68 290.245 1158.68 267.771C1158.68 253.655 1152.09 243.463 1119.29 236.354C1085.23 228.889 1065.05 224.251 1046.37 215.919C1014.93 201.752 1000.92 180.986 1000.92 148.652C1000.92 96.4426 1037.89 65.2803 1099.83 65.2803C1164.57 65.2803 1206.13 99.3218 1208.29 154.155L1208.37 156.321H1151.73L1151.53 154.436C1148.82 128.267 1132.77 116.088 1101.03 116.088C1080.36 116.088 1055.7 121.107 1055.7 145.084C1055.7 160.806 1066.76 169.622 1095.14 176.527C1126.99 184.171 1154.91 191.203 1174 199.765C1193.87 208.683 1216.68 224.226 1216.68 265.81C1216.65 320.516 1177.41 351.933 1109 351.933Z" stroke="white" stroke-opacity="0.7" stroke-width="2" stroke-miterlimit="10"/>
<path d="M1385.4 64.7705C1303.3 64.7705 1256.24 117.795 1256.24 210.288C1256.24 299.978 1303.33 351.423 1385.4 351.423C1469.38 351.423 1513.76 303.036 1513.76 211.511C1513.79 118.228 1466.98 64.7705 1385.4 64.7705ZM1455.03 211.46C1455.03 266.778 1429.02 299.8 1385.42 299.8C1338.69 299.8 1315 270.09 1315 211.46C1315 150.282 1339.33 117.922 1385.42 117.922C1430.96 117.948 1455.03 150.282 1455.03 211.46Z" stroke="white" stroke-opacity="0.7" stroke-width="2" stroke-miterlimit="10"/>
<path d="M1616.9 352.238H1553.38V65.5859H1758.85V119.324H1616.93V179.049H1741.01V233.22H1616.93V352.238H1616.9Z" stroke="white" stroke-opacity="0.7" stroke-width="2" stroke-miterlimit="10"/>
<path d="M1798.42 65.0508V122.203H1881.94V351.092H1948.69V122.203H2032.65V65.0508H1798.42Z" stroke="white" stroke-opacity="0.7" stroke-width="2" stroke-miterlimit="10"/>
<path d="M903.893 91.1171L872.273 145.594C887.306 158.385 889.064 176.807 889.064 211.46C889.064 263.465 865.878 293.277 825.442 293.277C782.102 293.277 761.031 266.497 761.031 211.46C761.031 173.444 768.216 128.267 816.219 124.624L849.826 66.7326L848.73 66.5033C840.577 65.3312 832.958 64.7451 825.442 64.7451C744.24 64.7451 695.778 119.145 695.778 210.288C695.778 300.08 743.042 351.576 825.442 351.576C908.555 351.576 954.342 301.813 954.342 211.46C954.316 150.792 941.5 113.998 903.893 91.1171Z" stroke="white" stroke-opacity="0.7" stroke-width="2" stroke-miterlimit="10"/>
</svg>
