<svg width="130" height="130" viewBox="0 0 130 130" fill="none" xmlns="http://www.w3.org/2000/svg">
<path d="M109.688 16.25H4.0625V97.5H109.688V16.25ZM101.562 89.375H12.1875V24.375H101.562V89.375Z" fill="white"/>
<path d="M117.812 36.5625V105.625H24.375V113.75H125.938V36.5625H117.812Z" fill="white"/>
<path d="M56.875 76.7965C66.9551 76.7965 75.1562 67.875 75.1562 56.909C75.1562 45.9431 66.9551 37.0216 56.875 37.0216C46.7949 37.0216 38.5938 45.9428 38.5938 56.909C38.5938 67.8752 46.7949 76.7965 56.875 76.7965ZM56.875 45.1466C62.4752 45.1466 67.0312 50.4232 67.0312 56.909C67.0312 63.3948 62.4752 68.6715 56.875 68.6715C51.2748 68.6715 46.7188 63.3948 46.7188 56.909C46.7188 50.4232 51.2748 45.1466 56.875 45.1466ZM20.3125 34.5312H28.4375V79.2188H20.3125V34.5312ZM85.3125 34.5312H93.4375V79.2188H85.3125V34.5312Z" fill="white"/>
</svg>
