<svg width="130" height="130" viewBox="0 0 130 130" fill="none" xmlns="http://www.w3.org/2000/svg">
<path d="M78 11.6923V24.6154H100.75V11.6923H78ZM68.25 10.0769C68.25 5.61846 71.89 2 76.375 2H102.375C106.86 2 110.5 5.61846 110.5 10.0769V26.2308C110.5 30.6892 106.86 34.3077 102.375 34.3077H76.375C71.89 34.3077 68.25 30.6892 68.25 26.2308V10.0769ZM89.375 44C90.6679 44 91.9079 44.5106 92.8221 45.4194C93.7364 46.3282 94.25 47.5609 94.25 48.8462V92.0738L102.18 84.1908C102.626 83.7146 103.165 83.3327 103.762 83.0679C104.36 82.803 105.006 82.6606 105.661 82.6491C106.315 82.6376 106.965 82.7573 107.572 83.0011C108.179 83.2448 108.731 83.6076 109.194 84.0678C109.657 84.5279 110.022 85.0761 110.267 85.6795C110.512 86.283 110.632 86.9293 110.621 87.58C110.609 88.2307 110.466 88.8724 110.2 89.4669C109.933 90.0613 109.549 90.5963 109.07 91.04L92.82 107.194C91.9059 108.101 90.6669 108.611 89.375 108.611C88.0831 108.611 86.8441 108.101 85.93 107.194L69.68 91.04C69.201 90.5963 68.8169 90.0613 68.5504 89.4669C68.284 88.8724 68.1407 88.2307 68.1292 87.58C68.1176 86.9293 68.238 86.283 68.4832 85.6795C68.7284 85.0761 69.0933 84.5279 69.5563 84.0678C70.0192 83.6076 70.5706 83.2448 71.1776 83.0011C71.7846 82.7573 72.4348 82.6376 73.0894 82.6491C73.744 82.6606 74.3895 82.803 74.9875 83.0679C75.5855 83.3327 76.1237 83.7146 76.57 84.1908L84.5 92.0738V48.8462C84.5 47.5609 85.0136 46.3282 85.9279 45.4194C86.8421 44.5106 88.0821 44 89.375 44ZM29.25 86V98.9231H52V86H29.25ZM19.5 84.3846C19.5 79.9262 23.14 76.3077 27.625 76.3077H53.625C58.11 76.3077 61.75 79.9262 61.75 84.3846V100.538C61.75 104.997 58.11 108.615 53.625 108.615H27.625C23.14 108.615 19.5 104.997 19.5 100.538V84.3846ZM4.875 92.4615C6.16793 92.4615 7.40791 92.9721 8.32215 93.8809C9.23639 94.7898 9.75 96.0224 9.75 97.3077V110.231C9.75 114.689 13.39 118.308 17.875 118.308H112.125C116.61 118.308 120.25 114.689 120.25 110.231V97.3077C120.25 96.0224 120.764 94.7898 121.678 93.8809C122.592 92.9721 123.832 92.4615 125.125 92.4615C126.418 92.4615 127.658 92.9721 128.572 93.8809C129.486 94.7898 130 96.0224 130 97.3077V110.231C130 114.943 128.117 119.463 124.765 122.796C121.412 126.128 116.866 128 112.125 128H17.875C13.1343 128 8.58768 126.128 5.23547 122.796C1.88325 119.463 0 114.943 0 110.231V97.3077C0 96.0224 0.513614 94.7898 1.42785 93.8809C2.34209 92.9721 3.58207 92.4615 4.875 92.4615V92.4615Z" fill="white"/>
</svg>
