<svg width="130" height="130" viewBox="0 0 130 130" fill="none" xmlns="http://www.w3.org/2000/svg">
<path d="M65.0006 10.8335C73.6202 10.8335 81.8867 14.2576 87.9816 20.3525C94.0766 26.4475 97.5006 34.714 97.5006 43.3335V48.7502H119.167V59.5835H112.846L108.746 108.783C108.633 110.137 108.016 111.398 107.017 112.318C106.017 113.238 104.709 113.749 103.351 113.75H26.6507C25.2924 113.749 23.984 113.238 22.9848 112.318C21.9855 111.398 21.3684 110.137 21.2557 108.783L17.1498 59.5835H10.834V48.7502H32.5007V43.3335C32.5007 34.714 35.9247 26.4475 42.0197 20.3525C48.1146 14.2576 56.3811 10.8335 65.0006 10.8335V10.8335ZM101.975 59.5835H28.0211L31.634 102.917H98.3619L101.975 59.5835ZM70.4173 70.4168V92.0835H59.584V70.4168H70.4173ZM48.7506 70.4168V92.0835H37.9173V70.4168H48.7506ZM92.084 70.4168V92.0835H81.2506V70.4168H92.084ZM65.0006 21.6668C59.4418 21.6668 54.0957 23.8034 50.0679 27.6345C46.0402 31.4656 43.639 36.6983 43.3611 42.2502L43.334 43.3335V48.7502H86.6673V43.3335C86.6673 37.7747 84.5308 32.4285 80.6996 28.4008C76.8685 24.373 71.6358 21.9719 66.084 21.6939L65.0006 21.6668Z" fill="white"/>
</svg>
