<svg width="108" height="108" viewBox="0 0 108 108" fill="none" xmlns="http://www.w3.org/2000/svg">
<path d="M77.3107 105.758V85.0568C77.3107 85.0568 94.9732 70.688 95.9985 45.2517C96.0847 43.0539 96.0761 40.9602 95.9813 38.9795C94.9991 18.3299 77.819 2.23242 57.3133 2.23242C20.6441 4.16099 21.79 38.4496 21.79 38.4496L9.96902 57.0751C7.73751 60.6542 10.2878 65.3019 14.4751 65.3019H15.3022C18.2403 65.3019 20.6269 67.7083 20.6269 70.6707V75.1793C20.6269 84.3097 28.7258 91.2682 37.6604 89.8261L41.0465 89.2788V105.758H77.3107Z" fill="white" stroke="#131313" stroke-width="2" stroke-miterlimit="10" stroke-linecap="round" stroke-linejoin="round"/>
<path d="M71.7619 62.2178L77.1382 57.8134L74.3725 53.4871C75.9923 51.4456 77.1726 49.1435 77.8877 46.7284L82.9453 46.6676L83.6087 39.7178L78.5942 38.6666C78.3099 36.156 77.5517 33.6888 76.311 31.3867L79.8091 27.7207L75.3633 22.3607L71.1243 25.2101C69.3925 23.8375 67.4711 22.7863 65.4464 22.074L65.6015 17.0267L58.7433 16.0537L57.5026 20.9881C54.9695 21.1618 52.4623 21.8221 50.1188 22.9775L46.6983 19.3636L41.1927 23.6116L43.7861 27.9292C42.0629 29.9446 40.7964 32.2468 40.0037 34.6705L35.0755 34.5836L34.2139 41.5161L39.0646 42.6802C39.28 45.2429 39.9865 47.7709 41.1841 50.1338L37.6688 53.6174L41.9595 59.1078L46.2072 56.4321C48.2319 58.1174 48.1027 58.5952 50.5237 59.351L50.7822 64.8761L59.8203 65.8925L60.9231 60.9147C63.4303 60.6541 65.9031 59.9157 68.2035 58.6734L71.7619 62.2178ZM50.0671 48.379C46.009 43.4794 46.6552 36.1908 51.5059 32.0991C56.3567 28.0074 63.594 28.6589 67.6521 33.5498C71.7102 38.4495 71.064 45.7381 66.2132 49.8298C61.3625 53.9215 54.1252 53.2786 50.0671 48.379Z" fill="#FFCF86" stroke="#131313" stroke-width="2" stroke-miterlimit="10" stroke-linecap="round" stroke-linejoin="round"/>
</svg>
