<svg width="32" height="32" viewBox="0 0 32 32" fill="none" xmlns="http://www.w3.org/2000/svg">
<g clip-path="url(#clip0_9_343)">
<path d="M16 6C16.2652 6 16.5196 6.10536 16.7071 6.29289C16.8946 6.48043 17 6.73478 17 7V11C17 11.2652 16.8946 11.5196 16.7071 11.7071C16.5196 11.8946 16.2652 12 16 12C15.7348 12 15.4804 11.8946 15.2929 11.7071C15.1054 11.5196 15 11.2652 15 11V7C15 6.73478 15.1054 6.48043 15.2929 6.29289C15.4804 6.10536 15.7348 6 16 6ZM24 22C24 24.1217 23.1571 26.1566 21.6569 27.6569C20.1566 29.1571 18.1217 30 16 30C13.8783 30 11.8434 29.1571 10.3431 27.6569C8.84285 26.1566 8 24.1217 8 22V10C8 7.87827 8.84285 5.84344 10.3431 4.34315C11.8434 2.84285 13.8783 2 16 2C18.1217 2 20.1566 2.84285 21.6569 4.34315C23.1571 5.84344 24 7.87827 24 10V22ZM16 0C13.3478 0 10.8043 1.05357 8.92893 2.92893C7.05357 4.8043 6 7.34784 6 10V22C6 24.6522 7.05357 27.1957 8.92893 29.0711C10.8043 30.9464 13.3478 32 16 32C18.6522 32 21.1957 30.9464 23.0711 29.0711C24.9464 27.1957 26 24.6522 26 22V10C26 7.34784 24.9464 4.8043 23.0711 2.92893C21.1957 1.05357 18.6522 0 16 0V0Z" fill="white"/>
</g>
<defs>
<clipPath id="clip0_9_343">
<rect width="32" height="32" fill="white"/>
</clipPath>
</defs>
</svg>
