<svg width="280" height="36" viewBox="0 0 280 36" fill="none" xmlns="http://www.w3.org/2000/svg">
<path d="M76.1175 18.6033C78.4077 17.2941 79.7423 14.7642 79.7423 11.6198C79.7423 6.18907 75.8693 2.39697 70.3228 2.39697H55.0605V33.5918H61.9123V21.7505H67.9499C71.4412 21.7505 72.0578 22.9047 72.0578 25.3267V33.5918H78.9522V24.5517C78.9522 21.3464 78.1648 19.6219 76.1175 18.6033ZM61.9123 8.59165H69.3139C71.8335 8.59165 73.1121 9.79294 73.1121 12.1651C73.1121 14.5068 71.7615 15.697 69.0923 15.697H61.9123V8.59165Z" fill="#111111"/>
<path d="M90.7377 27.2644V20.4331H105.012V14.1471H90.7377V8.6361H106.24V2.3999H83.8887V33.5947H106.945V27.2644H90.7377Z" fill="#111111"/>
<path d="M128.827 19.7688L118.47 2.3999H111.053V33.5864H117.993V15.3041L129.219 33.5864H135.809V2.3999H128.827V19.7688Z" fill="#111111"/>
<path d="M183.244 33.5946C175.773 33.5946 171.416 30.0101 171.296 23.7628L171.291 23.5303H177.321L177.326 23.7517C177.403 26.5529 179.688 28.2939 183.284 28.2939C186.567 28.2939 188.448 26.8933 188.448 24.452C188.448 22.9186 187.757 21.8114 184.322 21.0391C180.753 20.2281 178.639 19.7243 176.683 18.8192C173.389 17.2802 171.921 15.0244 171.921 11.5118C171.921 5.84028 175.794 2.45508 182.283 2.45508C189.065 2.45508 193.418 6.15306 193.645 12.1097L193.653 12.345H187.72L187.698 12.1401C187.415 9.29746 185.734 7.97438 182.408 7.97438C180.243 7.97438 177.66 8.51966 177.66 11.1243C177.66 12.8321 178.818 13.7898 181.792 14.54C185.128 15.3703 188.053 16.1343 190.053 17.0643C192.135 18.0331 194.523 19.7216 194.523 24.2389C194.521 30.1817 190.41 33.5946 183.244 33.5946Z" fill="#111111"/>
<path d="M212.198 2.3999C203.598 2.3999 198.668 8.16001 198.668 18.2077C198.668 27.9509 203.601 33.5394 212.198 33.5394C220.995 33.5394 225.645 28.283 225.645 18.3405C225.648 8.20707 220.745 2.3999 212.198 2.3999ZM219.493 18.335C219.493 24.3442 216.768 27.9315 212.201 27.9315C207.305 27.9315 204.823 24.7041 204.823 18.335C204.823 11.6892 207.372 8.17385 212.201 8.17385C216.97 8.17662 219.493 11.6892 219.493 18.335Z" fill="#111111"/>
<path d="M236.447 33.6278H229.793V2.48828H251.317V8.3259H236.45V14.814H249.449V20.6986H236.45V33.6278H236.447Z" fill="#111111"/>
<path d="M255.463 2.43018V8.6387H264.212V33.5032H271.206V8.6387H280V2.43018H255.463Z" fill="#111111"/>
<path d="M161.757 5.26181L158.444 11.1797C160.019 12.5692 160.203 14.5704 160.203 18.3349C160.203 23.9842 157.774 27.2227 153.538 27.2227C148.998 27.2227 146.791 24.3136 146.791 18.3349C146.791 14.2051 147.543 9.29748 152.572 8.90166L156.093 2.61287L155.978 2.58796C155.124 2.46064 154.326 2.39697 153.538 2.39697C145.032 2.39697 139.955 8.30655 139.955 18.2075C139.955 27.9618 144.906 33.5558 153.538 33.5558C162.245 33.5558 167.042 28.15 167.042 18.3349C167.039 11.7444 165.696 7.74743 161.757 5.26181Z" fill="#111111"/>
<path d="M41.2612 10.6843V0.00830352C35.7816 0.12179 30.9239 2.86483 27.8198 7.07766C26.0475 9.42211 24.8304 12.2177 24.3713 15.2708C24.2485 15.877 24.1524 16.5081 24.1017 17.1724C24.1017 17.1724 24.1391 20.9423 21.9985 23.3837C21.9505 23.4363 21.9024 23.4888 21.8544 23.5387C21.7503 23.6494 21.6382 23.7518 21.5261 23.8542C21.406 23.9622 21.2832 24.0701 21.1524 24.167C21.1257 24.1891 21.0937 24.2085 21.0643 24.2279C19.978 24.931 18.7022 25.3434 17.3276 25.3434C13.4148 25.3434 10.2439 22.0551 10.2439 17.9972C10.2439 13.9394 13.4148 10.6511 17.3276 10.6511C17.728 10.6511 18.3659 10.6898 18.9851 10.7618L23.9736 1.05459C21.9184 0.379209 19.3962 0 17.357 0C7.77234 0 0 8.05751 0 18C0 27.9425 7.76967 36 17.357 36C20.2663 36 23.0021 35.2499 25.4096 33.9351L25.4123 33.9434C25.5163 33.8825 25.6044 33.8272 25.7032 33.7663C26.1382 33.5171 26.56 33.2514 26.971 32.9691C27.0991 32.8833 27.2165 32.803 27.334 32.72C27.366 32.6951 27.4034 32.6757 27.4354 32.6508C28.0973 32.1885 28.5858 31.7955 28.9461 31.4799C29.1143 31.3194 29.3118 31.1173 29.5146 30.8959C32.5627 33.9711 36.6971 35.8837 41.2639 35.9806V25.3102C37.5245 25.1192 34.5485 21.925 34.5485 18C34.5458 14.0723 37.5218 10.8753 41.2612 10.6843Z" fill="#111111"/>
</svg>
