<svg width="108" height="108" viewBox="0 0 108 108" fill="none" xmlns="http://www.w3.org/2000/svg">
<path d="M77.1551 104.099H34.3256C31.1722 104.099 28.6133 101.519 28.6133 98.3397V10.1727C28.6133 6.9932 31.1722 4.41309 34.3256 4.41309H77.1551C80.3085 4.41309 82.8675 6.9932 82.8675 10.1727V98.3397C82.8675 101.519 80.3172 104.099 77.1551 104.099Z" fill="white" stroke="#131313" stroke-width="2" stroke-miterlimit="10" stroke-linecap="round" stroke-linejoin="round"/>
<path d="M82.8675 15.0376H28.6133V91.1293H82.8675V15.0376Z" fill="white" stroke="#131313" stroke-width="2" stroke-miterlimit="10" stroke-linecap="round" stroke-linejoin="round"/>
<path d="M52.7031 97.6797H58.7859" stroke="#131313" stroke-width="2" stroke-miterlimit="10" stroke-linecap="round" stroke-linejoin="round"/>
<path d="M52.7031 9.5127H58.7859" stroke="#131313" stroke-width="2" stroke-miterlimit="10" stroke-linecap="round" stroke-linejoin="round"/>
<path d="M67.6174 59.3081V45.8863L56.0894 39.1797L44.5527 45.8863V59.3081L56.0894 66.0233L67.6174 59.3081Z" fill="#FFCF86" stroke="#131313" stroke-width="2" stroke-miterlimit="10" stroke-linecap="round" stroke-linejoin="round"/>
<path d="M56.0894 66.0233V52.2019L44.5527 45.8862" stroke="#131313" stroke-width="2" stroke-miterlimit="10" stroke-linecap="round" stroke-linejoin="round"/>
<path d="M67.6169 45.8862L56.0889 52.2019" stroke="#131313" stroke-width="2" stroke-miterlimit="10" stroke-linecap="round" stroke-linejoin="round"/>
<path d="M66.6347 34.0454C83.2892 36.3475 95.4806 43.7925 95.4806 52.6275C95.4806 63.2954 77.6889 71.9479 55.7442 71.9479C33.7996 71.9479 16.0078 63.2954 16.0078 52.6275C16.0078 44.6265 26.0195 37.7549 40.2787 34.8273" stroke="#131313" stroke-width="2" stroke-miterlimit="10" stroke-linecap="round" stroke-linejoin="round"/>
<path d="M71.7962 32.6382L63.4561 33.6546L69.0133 37.199" stroke="#131313" stroke-width="2" stroke-miterlimit="10" stroke-linecap="round" stroke-linejoin="round"/>
</svg>
