<svg width="248" height="35" viewBox="0 0 248 35" fill="none" xmlns="http://www.w3.org/2000/svg">
<path d="M24.0348 18.1442C26.5401 16.7592 28 14.0829 28 10.7565C28 5.01153 23.7633 1 17.6958 1H1V34H8.4953V21.4735H15.1C18.9192 21.4735 19.5937 22.6945 19.5937 25.2566V34H27.1357V24.4367C27.1357 21.046 26.2744 19.2217 24.0348 18.1442ZM8.4953 7.55315H16.5921C19.3484 7.55315 20.7471 8.82396 20.7471 11.3334C20.7471 13.8106 19.2696 15.0697 16.3497 15.0697H8.4953V7.55315Z" stroke="white" stroke-miterlimit="10"/>
<path d="M40.4265 27.3034V20.0768H55.9046V13.427H40.4265V7.59707H57.2359V1H33V34H58V27.3034H40.4265Z" stroke="white" stroke-miterlimit="10"/>
<path d="M81.6667 19.3789L70.7902 1H63V34H70.2884V14.6546L82.0788 34H89V1H81.6667V19.3789Z" stroke="white" stroke-miterlimit="10"/>
<path d="M140.862 34C132.822 34 128.135 30.2013 128.006 23.5808L128 23.3344H134.488L134.494 23.5691C134.577 26.5376 137.036 28.3827 140.905 28.3827C144.438 28.3827 146.463 26.8984 146.463 24.3112C146.463 22.6861 145.719 21.5128 142.022 20.6944C138.182 19.8349 135.907 19.3011 133.802 18.3419C130.258 16.7109 128.678 14.3203 128.678 10.5979C128.678 4.58747 132.845 1 139.828 1C147.126 1 151.811 4.91893 152.055 11.2315L152.064 11.4808H145.679L145.656 11.2637C145.351 8.2512 143.542 6.84907 139.963 6.84907C137.633 6.84907 134.853 7.42693 134.853 10.1872C134.853 11.9971 136.1 13.012 139.299 13.8069C142.89 14.6869 146.038 15.4965 148.189 16.4821C150.429 17.5088 153 19.2981 153 24.0853C152.997 30.3832 148.574 34 140.862 34Z" stroke="white" stroke-miterlimit="10"/>
<path d="M173.043 1C164.117 1 159 7.10427 159 17.7523C159 28.0776 164.12 34 173.043 34C182.174 34 187 28.4296 187 17.8931C187.003 7.15413 181.914 1 173.043 1ZM180.614 17.8872C180.614 24.2555 177.786 28.0571 173.046 28.0571C167.965 28.0571 165.388 24.6368 165.388 17.8872C165.388 10.8443 168.034 7.11893 173.046 7.11893C177.996 7.12187 180.614 10.8443 180.614 17.8872Z" stroke="white" stroke-miterlimit="10"/>
<path d="M199.42 34H192V1H216V7.1864H199.423V14.0621H213.917V20.2984H199.423V34H199.42Z" stroke="white" stroke-miterlimit="10"/>
<path d="M220 1V7.59353H229.628V34H237.323V7.59353H247V1H220Z" stroke="white" stroke-miterlimit="10"/>
<path d="M117.342 4.03411L113.795 10.3017C115.481 11.7733 115.679 13.8928 115.679 17.8796C115.679 23.8628 113.078 27.2927 108.543 27.2927C103.682 27.2927 101.319 24.2117 101.319 17.8796C101.319 13.5058 102.124 8.30825 107.508 7.88905L111.278 1.22866L111.155 1.20227C110.24 1.06742 109.386 1 108.543 1C99.4354 1 94 7.25877 94 17.7448C94 28.0754 99.301 34 108.543 34C117.865 34 123 28.2748 123 17.8796C122.997 10.8997 121.56 6.66661 117.342 4.03411Z" stroke="white" stroke-miterlimit="10"/>
</svg>
