<svg width="2126" height="291" viewBox="0 0 2126 291" fill="none" xmlns="http://www.w3.org/2000/svg">
<path d="M200.381 150.932C221.988 138.88 234.58 115.591 234.58 86.6453C234.58 36.6531 198.039 1.74524 145.707 1.74524H1.70703V288.907H66.3534V179.903H123.319C156.259 179.903 162.076 190.528 162.076 212.823V288.907H227.126V205.689C227.126 176.183 219.696 160.309 200.381 150.932ZM66.3534 58.7699H136.188C159.961 58.7699 172.024 69.8283 172.024 91.6649C172.024 113.221 159.281 124.178 134.097 124.178H66.3534V58.7699Z" stroke="white" stroke-opacity="0.7" stroke-width="2" stroke-miterlimit="10"/>
<path d="M338.336 230.659V167.774H473.018V109.909H338.336V59.1777H484.602V1.77075H273.715V288.933H491.251V230.659H338.336Z" stroke="white" stroke-opacity="0.7" stroke-width="2" stroke-miterlimit="10"/>
<path d="M697.707 161.659L599.995 1.77075H530.01V288.856H595.487V120.559L701.409 288.856H763.588V1.77075H697.707V161.659Z" stroke="white" stroke-opacity="0.7" stroke-width="2" stroke-miterlimit="10"/>
<path d="M1211.15 288.933C1140.66 288.933 1099.56 255.936 1098.43 198.427L1098.38 196.287H1155.27L1155.32 198.325C1156.05 224.111 1177.61 240.138 1211.53 240.138C1242.5 240.138 1260.26 227.245 1260.26 204.771C1260.26 190.655 1253.74 180.463 1221.33 173.354C1187.65 165.889 1167.71 161.251 1149.25 152.919C1118.17 138.752 1104.32 117.986 1104.32 85.6515C1104.32 33.4426 1140.86 2.28027 1202.09 2.28027C1266.08 2.28027 1307.15 36.3218 1309.29 91.1552L1309.37 93.321H1253.38L1253.18 91.4355C1250.51 65.2673 1234.65 53.0878 1203.27 53.0878C1182.84 53.0878 1158.47 58.1074 1158.47 82.0843C1158.47 97.8056 1169.4 106.622 1197.45 113.527C1228.93 121.171 1256.53 128.203 1275.39 136.765C1295.04 145.683 1317.58 161.226 1317.58 202.81C1317.55 257.516 1278.77 288.933 1211.15 288.933Z" stroke="white" stroke-opacity="0.7" stroke-width="2" stroke-miterlimit="10"/>
<path d="M1484.34 1.77075C1403.2 1.77075 1356.69 54.7951 1356.69 147.288C1356.69 236.979 1403.22 288.423 1484.34 288.423C1567.35 288.423 1611.22 240.036 1611.22 148.511C1611.24 55.2282 1564.98 1.77075 1484.34 1.77075ZM1553.17 148.46C1553.17 203.778 1527.46 236.8 1484.37 236.8C1438.18 236.8 1414.76 207.09 1414.76 148.46C1414.76 87.2823 1438.81 54.9225 1484.37 54.9225C1529.37 54.9479 1553.17 87.2823 1553.17 148.46Z" stroke="white" stroke-opacity="0.7" stroke-width="2" stroke-miterlimit="10"/>
<path d="M1713.16 289.238H1650.38V2.58606H1853.46V56.3238H1713.19V116.049H1835.83V170.22H1713.19V289.238H1713.16Z" stroke="white" stroke-opacity="0.7" stroke-width="2" stroke-miterlimit="10"/>
<path d="M1892.57 2.05103V59.2031H1975.12V288.092H2041.1V59.2031H2124.08V2.05103H1892.57Z" stroke="white" stroke-opacity="0.7" stroke-width="2" stroke-miterlimit="10"/>
<path d="M1008.42 28.1172L977.17 82.5939C992.028 95.385 993.766 113.807 993.766 148.46C993.766 200.465 970.848 230.277 930.882 230.277C888.045 230.277 867.218 203.497 867.218 148.46C867.218 110.444 874.32 65.2674 921.766 61.6237L954.983 3.7327L953.9 3.50337C945.841 2.33129 938.311 1.74524 930.882 1.74524C850.622 1.74524 802.723 56.1455 802.723 147.288C802.723 237.08 849.438 288.576 930.882 288.576C1013.03 288.576 1058.29 238.813 1058.29 148.46C1058.26 87.7919 1045.59 50.9985 1008.42 28.1172Z" stroke="white" stroke-opacity="0.7" stroke-width="2" stroke-miterlimit="10"/>
</svg>
