<svg width="108" height="108" viewBox="0 0 108 108" fill="none" xmlns="http://www.w3.org/2000/svg">
<path d="M15.5348 85.1698C11.8214 85.1698 8.81445 82.1379 8.81445 78.3937C8.81445 74.6495 11.8214 71.6177 15.5348 71.6177C19.2483 71.6177 22.2552 74.6495 22.2552 78.3937C22.2552 82.1379 19.2483 85.1698 15.5348 85.1698Z" fill="white" stroke="#131313" stroke-width="2" stroke-miterlimit="10" stroke-linecap="round" stroke-linejoin="round"/>
<path d="M15.5341 85.3525C8.07276 85.3525 2.02441 91.451 2.02441 98.9742H29.0438C29.0438 91.451 22.9955 85.3525 15.5341 85.3525Z" fill="white" stroke="#131313" stroke-width="2" stroke-miterlimit="10" stroke-linecap="round" stroke-linejoin="round"/>
<path d="M54.151 85.1698C50.4376 85.1698 47.4307 82.1379 47.4307 78.3937C47.4307 74.6495 50.4376 71.6177 54.151 71.6177C57.8645 71.6177 60.8714 74.6495 60.8714 78.3937C60.8714 82.1379 57.8645 85.1698 54.151 85.1698Z" fill="white" stroke="#131313" stroke-width="2" stroke-miterlimit="10" stroke-linecap="round" stroke-linejoin="round"/>
<path d="M54.1503 85.3525C46.689 85.3525 40.6406 91.451 40.6406 98.9742H67.66C67.66 91.451 61.6117 85.3525 54.1503 85.3525Z" fill="white" stroke="#131313" stroke-width="2" stroke-miterlimit="10" stroke-linecap="round" stroke-linejoin="round"/>
<path d="M54.151 20.7885C50.4376 20.7885 47.4307 17.7566 47.4307 14.0124C47.4307 10.2682 50.4376 7.23633 54.151 7.23633C57.8645 7.23633 60.8714 10.2682 60.8714 14.0124C60.8714 17.7566 57.8645 20.7885 54.151 20.7885Z" fill="#FFCF86" stroke="#131313" stroke-width="2" stroke-miterlimit="10" stroke-linecap="round" stroke-linejoin="round"/>
<path d="M54.1503 20.9712C46.689 20.9712 40.6406 27.0696 40.6406 34.5928H67.66C67.66 27.0696 61.6117 20.9712 54.1503 20.9712Z" fill="#FFCF86" stroke="#131313" stroke-width="2" stroke-miterlimit="10" stroke-linecap="round" stroke-linejoin="round"/>
<path d="M92.7673 85.1698C89.0538 85.1698 86.0469 82.1379 86.0469 78.3937C86.0469 74.6495 89.0538 71.6177 92.7673 71.6177C96.4807 71.6177 99.4876 74.6495 99.4876 78.3937C99.4876 82.1379 96.4807 85.1698 92.7673 85.1698Z" fill="white" stroke="#131313" stroke-width="2" stroke-miterlimit="10" stroke-linecap="round" stroke-linejoin="round"/>
<path d="M92.7675 85.3525C85.3062 85.3525 79.2578 91.451 79.2578 98.9742H106.277C106.277 91.451 100.229 85.3525 92.7675 85.3525Z" fill="white" stroke="#131313" stroke-width="2" stroke-miterlimit="10" stroke-linecap="round" stroke-linejoin="round"/>
<path d="M15.5342 64.6682V51.9761H92.7669V64.6682" stroke="#131313" stroke-width="2" stroke-miterlimit="10" stroke-linecap="round" stroke-linejoin="round"/>
<path d="M54.1504 40.6826V64.6681" stroke="#131313" stroke-width="2" stroke-miterlimit="10" stroke-linecap="round" stroke-linejoin="round"/>
</svg>
