<svg width="1221" height="957" viewBox="0 0 1221 957" fill="none" xmlns="http://www.w3.org/2000/svg">
<path d="M1242.96 336.04V0.359257C1077.88 3.95183 931.586 90.1736 838.029 222.605C784.675 296.342 747.999 384.181 734.142 480.192C730.408 499.278 727.586 519.127 726.01 539.919C726.01 539.919 727.172 658.474 662.615 735.22C661.205 736.882 659.753 738.543 658.259 740.115C655.147 743.573 651.787 746.806 648.385 750.039C644.734 753.407 641.083 756.776 637.1 759.874C636.27 760.548 635.357 761.176 634.486 761.805C601.751 783.899 563.291 796.922 521.886 796.922C404.017 796.922 308.468 693.501 308.468 565.92C308.468 438.339 404.017 334.918 521.886 334.918C533.959 334.918 553.21 336.13 571.838 338.375L722.151 33.2313C660.25 11.9453 584.285 0 522.84 0C234.079 0 0 253.366 0 565.92C0 878.474 234.079 1131.84 522.84 1131.84C610.464 1131.84 692.86 1108.22 765.383 1066.95L765.466 1067.17C768.577 1065.24 771.233 1063.49 774.22 1061.61C787.289 1053.79 800.026 1045.44 812.389 1036.5C816.248 1033.81 819.733 1031.29 823.301 1028.73C824.297 1027.97 825.375 1027.3 826.371 1026.53C846.327 1011.98 861.055 999.678 871.884 989.709C876.987 984.679 882.878 978.258 889.06 971.387C980.875 1068.12 1105.42 1128.25 1243 1131.26V795.8C1130.36 789.782 1040.7 689.325 1040.7 565.92C1040.66 442.515 1130.32 342.058 1242.96 336.04Z" fill="white" fill-opacity="0.13"/>
</svg>
