<svg width="108" height="108" viewBox="0 0 108 108" fill="none" xmlns="http://www.w3.org/2000/svg">
<path d="M52.1968 98.7436C63.1198 98.7436 71.9747 77.6873 71.9747 51.7131C71.9747 25.7389 63.1198 4.68262 52.1968 4.68262C41.2738 4.68262 32.4189 25.7389 32.4189 51.7131C32.4189 77.6873 41.2738 98.7436 52.1968 98.7436Z" stroke="#131313" stroke-width="2" stroke-miterlimit="10" stroke-linecap="round" stroke-linejoin="round"/>
<path d="M52.1968 71.6544C77.9575 71.6544 98.8408 62.7262 98.8408 51.7127C98.8408 40.6992 77.9575 31.771 52.1968 31.771C26.436 31.771 5.55273 40.6992 5.55273 51.7127C5.55273 62.7262 26.436 71.6544 52.1968 71.6544Z" stroke="#131313" stroke-width="2" stroke-miterlimit="10" stroke-linecap="round" stroke-linejoin="round"/>
<path d="M66.1774 65.8121C84.3929 47.4457 92.8982 26.2437 85.1745 18.456C77.4508 10.6684 56.423 19.2441 38.2076 37.6105C19.9921 55.9768 11.4869 77.1789 19.2105 84.9665C26.9342 92.7542 47.962 84.1784 66.1774 65.8121Z" stroke="#131313" stroke-width="2" stroke-miterlimit="10" stroke-linecap="round" stroke-linejoin="round"/>
<path d="M85.1745 84.9663C92.8981 77.1787 84.3929 55.9767 66.1774 37.6103C47.962 19.2439 26.9342 10.6682 19.2105 18.4558C11.4869 26.2435 19.9921 47.4455 38.2076 65.8119C56.423 84.1783 77.4508 92.754 85.1745 84.9663Z" stroke="#131313" stroke-width="2" stroke-miterlimit="10" stroke-linecap="round" stroke-linejoin="round"/>
<path d="M52.4418 28.3887C55.622 28.3887 58.2 25.7893 58.2 22.5828C58.2 19.3763 55.622 16.7769 52.4418 16.7769C49.2616 16.7769 46.6836 19.3763 46.6836 22.5828C46.6836 25.7893 49.2616 28.3887 52.4418 28.3887Z" fill="#FFCF86" stroke="#131313" stroke-width="2" stroke-miterlimit="10" stroke-linecap="round" stroke-linejoin="round"/>
<path d="M33.1664 64.5611C36.3466 64.5611 38.9246 61.9617 38.9246 58.7551C38.9246 55.5486 36.3466 52.9492 33.1664 52.9492C29.9862 52.9492 27.4082 55.5486 27.4082 58.7551C27.4082 61.9617 29.9862 64.5611 33.1664 64.5611Z" fill="#FFCF86" stroke="#131313" stroke-width="2" stroke-miterlimit="10" stroke-linecap="round" stroke-linejoin="round"/>
<path d="M96.7035 57.6182C99.8837 57.6182 102.462 55.0188 102.462 51.8123C102.462 48.6057 99.8837 46.0063 96.7035 46.0063C93.5234 46.0063 90.9453 48.6057 90.9453 51.8123C90.9453 55.0188 93.5234 57.6182 96.7035 57.6182Z" fill="#FFCF86" stroke="#131313" stroke-width="2" stroke-miterlimit="10" stroke-linecap="round" stroke-linejoin="round"/>
<path d="M54.9467 104.386C58.1269 104.386 60.7049 101.786 60.7049 98.5798C60.7049 95.3733 58.1269 92.7739 54.9467 92.7739C51.7665 92.7739 49.1885 95.3733 49.1885 98.5798C49.1885 101.786 51.7665 104.386 54.9467 104.386Z" fill="#FFCF86" stroke="#131313" stroke-width="2" stroke-miterlimit="10" stroke-linecap="round" stroke-linejoin="round"/>
</svg>
