<svg width="108" height="108" viewBox="0 0 108 108" fill="none" xmlns="http://www.w3.org/2000/svg">
<path d="M78.5509 105.906C76.6554 105.906 75.1131 104.447 75.1131 102.64C75.1131 92.3978 64.7741 86.9422 53.8233 81.1739C42.1919 75.032 29.001 68.0822 29.001 54.0001C29.001 39.9181 42.1833 32.9683 53.8233 26.8264C64.7741 21.0493 75.1131 15.5938 75.1131 5.36016C75.1131 3.5619 76.6554 2.09375 78.5509 2.09375C80.4464 2.09375 81.9886 3.55321 81.9886 5.36016C81.9886 19.4422 68.7977 26.4007 57.1663 32.5339C46.2241 38.3109 35.8764 43.7578 35.8764 54.0001C35.8764 64.2424 46.2155 69.698 57.1663 75.475C68.7977 81.6169 81.9886 88.5667 81.9886 102.649C81.9886 104.447 80.4464 105.906 78.5509 105.906Z" fill="white" stroke="#131313" stroke-width="2" stroke-miterlimit="10" stroke-linecap="round" stroke-linejoin="round"/>
<path d="M32.4387 105.906C30.5432 105.906 29.001 104.447 29.001 102.64C29.001 88.5579 42.1833 81.5994 53.8233 75.4662C64.7741 69.6892 75.1131 64.2336 75.1131 53.9913C75.1131 43.7491 64.7741 38.2934 53.8233 32.5251C42.1919 26.3832 29.001 19.4334 29.001 5.35137C29.001 3.55311 30.5432 2.08496 32.4387 2.08496C34.3342 2.08496 35.8764 3.54442 35.8764 5.35137C35.8764 15.5936 46.2155 21.0492 57.1663 26.8176C68.7977 32.9595 81.9886 39.9093 81.9886 53.9913C81.9886 68.0734 68.7977 75.0319 57.1663 81.1651C46.2241 86.9421 35.8764 92.3977 35.8764 102.631C35.8764 104.447 34.3428 105.906 32.4387 105.906Z" fill="#FFCF86" stroke="#131313" stroke-width="2" stroke-miterlimit="10" stroke-linecap="round" stroke-linejoin="round"/>
<path d="M39.2539 44.7915H65.3255" stroke="#131313" stroke-width="2" stroke-miterlimit="10" stroke-linecap="round" stroke-linejoin="round"/>
<path d="M39.2539 62.6611H65.3255" stroke="#131313" stroke-width="2" stroke-miterlimit="10" stroke-linecap="round" stroke-linejoin="round"/>
<path d="M35.876 54H71.5026" stroke="#131313" stroke-width="2" stroke-miterlimit="10" stroke-linecap="round" stroke-linejoin="round"/>
<path d="M67.9788 18.2432H50.1611" stroke="#131313" stroke-width="2" stroke-miterlimit="10" stroke-linecap="round" stroke-linejoin="round"/>
<path d="M74.0706 10.6855H42.9414" stroke="#131313" stroke-width="2" stroke-miterlimit="10" stroke-linecap="round" stroke-linejoin="round"/>
<path d="M67.9788 89.748H50.1611" stroke="#131313" stroke-width="2" stroke-miterlimit="10" stroke-linecap="round" stroke-linejoin="round"/>
<path d="M74.0706 97.3062H42.9414" stroke="#131313" stroke-width="2" stroke-miterlimit="10" stroke-linecap="round" stroke-linejoin="round"/>
</svg>
