<svg width="108" height="108" viewBox="0 0 108 108" fill="none" xmlns="http://www.w3.org/2000/svg">
<path d="M72.429 90.1042H67.0355L65.7087 82.6245H54.284H42.8507L41.5239 90.1042H36.1304C35.3119 90.1042 34.6484 90.7819 34.6484 91.5985V92.7712C34.6484 93.5965 35.3205 94.2654 36.1304 94.2654H43.3677H54.284H65.2003H72.4377C73.2562 94.2654 73.9196 93.5878 73.9196 92.7712V91.5985C73.911 90.7819 73.2476 90.1042 72.429 90.1042Z" fill="white" stroke="#131313" stroke-width="2" stroke-miterlimit="10" stroke-linecap="round" stroke-linejoin="round"/>
<path d="M100.896 83.528H7.66388C6.3198 83.528 5.22559 82.4247 5.22559 81.0695V20.5801C5.22559 19.2249 6.3198 18.1216 7.66388 18.1216H100.896C102.24 18.1216 103.335 19.2249 103.335 20.5801V81.0695C103.335 82.4247 102.249 83.528 100.896 83.528Z" fill="white" stroke="#131313" stroke-width="2" stroke-miterlimit="10" stroke-linecap="round" stroke-linejoin="round"/>
<path d="M103.335 74.2065H5.22559V20.5801C5.22559 19.2249 6.3198 18.1216 7.66388 18.1216H100.896C102.24 18.1216 103.335 19.2249 103.335 20.5801V74.2065Z" fill="white" stroke="#131313" stroke-width="2" stroke-miterlimit="10" stroke-linecap="round" stroke-linejoin="round"/>
<path d="M51.1939 53.7882C45.8725 53.7882 41.5586 49.4743 41.5586 44.1529C41.5586 38.8314 45.8725 34.5176 51.1939 34.5176C56.5153 34.5176 60.8292 38.8314 60.8292 44.1529" stroke="black" stroke-width="2" stroke-linejoin="round"/>
<path d="M68.4 44.1528H50.5059V62.0469H68.4V44.1528Z" fill="#FFCF86" stroke="black" stroke-width="2" stroke-linejoin="round"/>
</svg>
